<svg width="16" height="16" xmlns="http://www.w3.org/2000/svg">
 <title>Gnome Symbolic Icon Theme</title>
 <g fill="#000000">
  <rect transform="matrix(1.005362223962745,0,0,-2.436248624564019,-0.05375092972902312,-325.37339609075866) " height="1" width="12" y="-135.3" x="2.000053"/>
  <path d="m2.99995,14.989717c-1.108,0 -2,-0.892 -2,-2l0,-10c0,-1.108 0.892,-2 2,-2l10,0c1.108,0 2,0.892 2,2l0,10c0,1.108 -0.892,2 -2,2l-10,0zm0,-1l10,0c0.554,0 1,-0.446 1,-1l0,-10c0,-0.554 -0.446,-1 -1,-1l-10,0c-0.554,0 -1,0.446 -1,1l0,10c0,0.554 0.446,1 1,1z"/>
 </g>
</svg>
